{
    "asset" : {
        "generator" : "Khronos glTF Blender I/O v3.4.49",
        "version" : "2.0"
    },
    "scene" : 0,
    "scenes" : [
        {
            "name" : "Scene",
            "nodes" : [
                0
            ]
        }
    ],
    "nodes" : [
        {
            "mesh" : 0,
            "name" : "HELMET_Chrome_0"
        }
    ],
    "materials" : [
        {
            "doubleSided" : true,
            "name" : "Chrome",
            "pbrMetallicRoughness" : {
                "baseColorFactor" : [
                    0.11443500220775604,
                    0.06480299681425095,
                    0.009720999747514725,
                    1
                ],
                "metallicFactor" : 0,
                "roughnessFactor" : 0.7361919283866882
            }
        },
        {
            "doubleSided" : true,
            "name" : "HELMET",
            "pbrMetallicRoughness" : {
                "baseColorFactor" : [
                    0.6000000238418579,
                    0.07011000066995621,
                    0.009689000435173512,
                    1
                ],
                "metallicFactor" : 0,
                "roughnessFactor" : 0.7171573042869568
            }
        },
        {
            "doubleSided" : true,
            "name" : "Interior",
            "pbrMetallicRoughness" : {
                "baseColorFactor" : [
                    0.38359498977661133,
                    0.2273160070180893,
                    0.07705800235271454,
                    1
                ],
                "metallicFactor" : 0,
                "roughnessFactor" : 0.48126423358917236
            }
        },
        {
            "doubleSided" : true,
            "name" : "VISOR",
            "pbrMetallicRoughness" : {
                "baseColorFactor" : [
                    0.6000000238418579,
                    0.6000000238418579,
                    0.6000000238418579,
                    1
                ],
                "metallicFactor" : 0,
                "roughnessFactor" : 0.4199107885360718
            }
        }
    ],
    "meshes" : [
        {
            "name" : "HELMET_Chrome_0",
            "primitives" : [
                {
                    "attributes" : {
                        "POSITION" : 0,
                        "NORMAL" : 1
                    },
                    "indices" : 2,
                    "material" : 0
                },
                {
                    "attributes" : {
                        "POSITION" : 3,
                        "NORMAL" : 4
                    },
                    "indices" : 5,
                    "material" : 1
                },
                {
                    "attributes" : {
                        "POSITION" : 6,
                        "NORMAL" : 7
                    },
                    "indices" : 8,
                    "material" : 2
                },
                {
                    "attributes" : {
                        "POSITION" : 9,
                        "NORMAL" : 10
                    },
                    "indices" : 11,
                    "material" : 3
                }
            ]
        }
    ],
    "accessors" : [
        {
            "bufferView" : 0,
            "componentType" : 5126,
            "count" : 1942,
            "max" : [
                0.2153790146112442,
                0.1668294072151184,
                0.17689566314220428
            ],
            "min" : [
                -0.2146534025669098,
                -0.16867229342460632,
                -0.21438561379909515
            ],
            "type" : "VEC3"
        },
        {
            "bufferView" : 1,
            "componentType" : 5126,
            "count" : 1942,
            "type" : "VEC3"
        },
        {
            "bufferView" : 2,
            "componentType" : 5123,
            "count" : 10560,
            "type" : "SCALAR"
        },
        {
            "bufferView" : 3,
            "componentType" : 5126,
            "count" : 2931,
            "max" : [
                0.22853714227676392,
                0.21136733889579773,
                0.20669466257095337
            ],
            "min" : [
                -0.22670188546180725,
                -0.1517152488231659,
                -0.21858550608158112
            ],
            "type" : "VEC3"
        },
        {
            "bufferView" : 4,
            "componentType" : 5126,
            "count" : 2931,
            "type" : "VEC3"
        },
        {
            "bufferView" : 5,
            "componentType" : 5123,
            "count" : 10056,
            "type" : "SCALAR"
        },
        {
            "bufferView" : 6,
            "componentType" : 5126,
            "count" : 540,
            "max" : [
                0.19473451375961304,
                0.18530189990997314,
                0.18173882365226746
            ],
            "min" : [
                -0.19044983386993408,
                -0.14451347291469574,
                -0.20889680087566376
            ],
            "type" : "VEC3"
        },
        {
            "bufferView" : 7,
            "componentType" : 5126,
            "count" : 540,
            "type" : "VEC3"
        },
        {
            "bufferView" : 8,
            "componentType" : 5123,
            "count" : 3048,
            "type" : "SCALAR"
        },
        {
            "bufferView" : 9,
            "componentType" : 5126,
            "count" : 156,
            "max" : [
                0.20270667970180511,
                0.20113474130630493,
                0.10660240799188614
            ],
            "min" : [
                -0.20011310279369354,
                0.016520176082849503,
                -0.20214810967445374
            ],
            "type" : "VEC3"
        },
        {
            "bufferView" : 10,
            "componentType" : 5126,
            "count" : 156,
            "type" : "VEC3"
        },
        {
            "bufferView" : 11,
            "componentType" : 5123,
            "count" : 924,
            "type" : "SCALAR"
        }
    ],
    "bufferViews" : [
        {
            "buffer" : 0,
            "byteLength" : 23304,
            "byteOffset" : 0,
            "target" : 34962
        },
        {
            "buffer" : 0,
            "byteLength" : 23304,
            "byteOffset" : 23304,
            "target" : 34962
        },
        {
            "buffer" : 0,
            "byteLength" : 21120,
            "byteOffset" : 46608,
            "target" : 34963
        },
        {
            "buffer" : 0,
            "byteLength" : 35172,
            "byteOffset" : 67728,
            "target" : 34962
        },
        {
            "buffer" : 0,
            "byteLength" : 35172,
            "byteOffset" : 102900,
            "target" : 34962
        },
        {
            "buffer" : 0,
            "byteLength" : 20112,
            "byteOffset" : 138072,
            "target" : 34963
        },
        {
            "buffer" : 0,
            "byteLength" : 6480,
            "byteOffset" : 158184,
            "target" : 34962
        },
        {
            "buffer" : 0,
            "byteLength" : 6480,
            "byteOffset" : 164664,
            "target" : 34962
        },
        {
            "buffer" : 0,
            "byteLength" : 6096,
            "byteOffset" : 171144,
            "target" : 34963
        },
        {
            "buffer" : 0,
            "byteLength" : 1872,
            "byteOffset" : 177240,
            "target" : 34962
        },
        {
            "buffer" : 0,
            "byteLength" : 1872,
            "byteOffset" : 179112,
            "target" : 34962
        },
        {
            "buffer" : 0,
            "byteLength" : 1848,
            "byteOffset" : 180984,
            "target" : 34963
        }
    ],
    "buffers" : [
        {
            "byteLength" : 182832,
            "uri" : "data:application/octet-stream;base64,"
        }
    ]
}
