{
  "accessors": [
    {
      "bufferView": 2,
      "componentType": 5126,
      "count": 3266,
      "max": [
        1.026737093925476,
        1.0151344537734985,
        1.0334677696228027
      ],
      "min": [
        -1.0282245874404907,
        -1.014597773551941,
        -0.014718304388225079
      ],
      "type": "VEC3"
    },
    {
      "bufferView": 2,
      "byteOffset": 39192,
      "componentType": 5126,
      "count": 3266,
      "max": [
        0.9998753666877747,
        0.9999959468841553,
        0.9999997019767761
      ],
      "min": [
        -0.9998589158058167,
        -0.9999918937683105,
        -0.9999430179595947
      ],
      "type": "VEC3"
    },
    {
      "bufferView": 1,
      "componentType": 5126,
      "count": 3266,
      "max": [
        0.8381108045578003,
        0.8237918615341187
      ],
      "min": [
        0.21060051023960114,
        0.1762082278728485
      ],
      "type": "VEC2"
    },
    {
      "bufferView": 0,
      "componentType": 5125,
      "count": 8802,
      "type": "SCALAR"
    },
    {
      "bufferView": 2,
      "byteOffset": 78384,
      "componentType": 5126,
      "count": 3829,
      "max": [
        1.014858365058899,
        1.0032180547714233,
        1.021583080291748
      ],
      "min": [
        -1.0158902406692505,
        -1.002595067024231,
        0.004174862988293171
      ],
      "type": "VEC3"
    },
    {
      "bufferView": 2,
      "byteOffset": 124332,
      "componentType": 5126,
      "count": 3829,
      "max": [
        0.9898935556411743,
        0.999714732170105,
        0.9903823733329773
      ],
      "min": [
        -0.9898337721824646,
        -0.9993126392364502,
        -0.9999772906303406
      ],
      "type": "VEC3"
    },
    {
      "bufferView": 1,
      "byteOffset": 26128,
      "componentType": 5126,
      "count": 3829,
      "max": [
        0.833585262298584,
        0.8229233622550964
      ],
      "min": [
        0.21514615416526794,
        0.17707689106464386
      ],
      "type": "VEC2"
    },
    {
      "bufferView": 0,
      "byteOffset": 35208,
      "componentType": 5125,
      "count": 5727,
      "type": "SCALAR"
    },
    {
      "bufferView": 2,
      "byteOffset": 170280,
      "componentType": 5126,
      "count": 61,
      "max": [
        1.0,
        0.0,
        1.0
      ],
      "min": [
        -1.0,
        0.0,
        -1.0
      ],
      "type": "VEC3"
    },
    {
      "bufferView": 2,
      "byteOffset": 171012,
      "componentType": 5126,
      "count": 61,
      "max": [
        0.0,
        1.0,
        0.0
      ],
      "min": [
        0.0,
        1.0,
        0.0
      ],
      "type": "VEC3"
    },
    {
      "bufferView": 1,
      "byteOffset": 56760,
      "componentType": 5126,
      "count": 61,
      "max": [
        1.0,
        1.0
      ],
      "min": [
        0.0,
        0.0
      ],
      "type": "VEC2"
    },
    {
      "bufferView": 0,
      "byteOffset": 58116,
      "componentType": 5125,
      "count": 288,
      "type": "SCALAR"
    }
  ],
  "asset": {
    "extras": {
      "author": "Ted Emery (https://sketchfab.com/Tellos)",
      "license": "CC-BY-NC-4.0 (http://creativecommons.org/licenses/by-nc/4.0/)",
      "source": "https://sketchfab.com/3d-models/dome-1dc965b7b0b94902a0dda5436185592a",
      "title": "Dome"
    },
    "generator": "Sketchfab-12.67.0",
    "version": "2.0"
  },
  "bufferViews": [
    {
      "buffer": 0,
      "byteLength": 59268,
      "name": "floatBufferViews",
      "target": 34963
    },
    {
      "buffer": 0,
      "byteLength": 57248,
      "byteOffset": 59268,
      "byteStride": 8,
      "name": "floatBufferViews",
      "target": 34962
    },
    {
      "buffer": 0,
      "byteLength": 171744,
      "byteOffset": 116516,
      "byteStride": 12,
      "name": "floatBufferViews",
      "target": 34962
    }
  ],
  "buffers": [
    {
      "byteLength": 288260,
      "uri": "scene.bin"
    }
  ],
  "materials": [
    {
      "doubleSided": true,
      "name": "aiStandardSurface2",
      "pbrMetallicRoughness": {
        "roughnessFactor": 0.4
      }
    },
    {
      "alphaMode": "BLEND",
      "doubleSided": true,
      "name": "BioGlass",
      "pbrMetallicRoughness": {
        "baseColorFactor": [
          0.00792598435108542,
          0.6751395395437068,
          0.5390523602815849,
          0.1
        ],
        "metallicFactor": 0.0,
        "roughnessFactor": 0.6
      }
    },
    {
      "doubleSided": true,
      "name": "lambert1",
      "pbrMetallicRoughness": {
        "baseColorFactor": [
          0.0,
          0.0,
          0.0,
          1.0
        ],
        "metallicFactor": 0.0,
        "roughnessFactor": 0.6
      }
    }
  ],
  "meshes": [
    {
      "name": "Bio_Frame_aiStandardSurface2_0",
      "primitives": [
        {
          "attributes": {
            "NORMAL": 1,
            "POSITION": 0,
            "TEXCOORD_0": 2
          },
          "indices": 3,
          "material": 0,
          "mode": 4
        }
      ]
    },
    {
      "name": "Bio_Glass_BioGlass_0",
      "primitives": [
        {
          "attributes": {
            "NORMAL": 5,
            "POSITION": 4,
            "TEXCOORD_0": 6
          },
          "indices": 7,
          "material": 1,
          "mode": 4
        }
      ]
    },
    {
      "name": "pDisc1_lambert1_0",
      "primitives": [
        {
          "attributes": {
            "NORMAL": 9,
            "POSITION": 8,
            "TEXCOORD_0": 10
          },
          "indices": 11,
          "material": 2,
          "mode": 4
        }
      ]
    }
  ],
  "nodes": [
    {
      "children": [
        1
      ],
      "matrix": [
        1.0,
        0.0,
        0.0,
        0.0,
        0.0,
        2.220446049250313e-16,
        -1.0,
        0.0,
        0.0,
        1.0,
        2.220446049250313e-16,
        0.0,
        0.0,
        0.0,
        0.0,
        1.0
      ],
      "name": "Sketchfab_model"
    },
    {
      "children": [
        2
      ],
      "matrix": [
        1.0,
        0.0,
        0.0,
        0.0,
        0.0,
        0.0,
        1.0,
        0.0,
        0.0,
        -1.0,
        0.0,
        0.0,
        0.0,
        0.0,
        0.0,
        1.0
      ],
      "name": "7aa9c999253442058966e6040ca312b3.fbx"
    },
    {
      "children": [
        3,
        5,
        7
      ],
      "name": "RootNode"
    },
    {
      "children": [
        4
      ],
      "matrix": [
        0.0,
        0.0,
        -1.0,
        0.0,
        -1.0,
        0.0,
        0.0,
        0.0,
        0.0,
        1.0,
        0.0,
        0.0,
        0.0,
        0.0,
        0.0,
        1.0
      ],
      "name": "Bio_Frame"
    },
    {
      "mesh": 0,
      "name": "Bio_Frame_aiStandardSurface2_0"
    },
    {
      "children": [
        6
      ],
      "matrix": [
        0.0,
        0.0,
        -1.0,
        0.0,
        -1.0,
        0.0,
        0.0,
        0.0,
        0.0,
        1.0,
        0.0,
        0.0,
        0.0,
        0.0,
        0.0,
        1.0
      ],
      "name": "Bio_Glass"
    },
    {
      "mesh": 1,
      "name": "Bio_Glass_BioGlass_0"
    },
    {
      "children": [
        8
      ],
      "matrix": [
        1.210582971572876,
        0.0,
        0.0,
        0.0,
        0.0,
        1.210582971572876,
        0.0,
        0.0,
        0.0,
        0.0,
        1.210582971572876,
        0.0,
        0.0,
        0.0,
        0.0,
        1.0
      ],
      "name": "pDisc1"
    },
    {
      "mesh": 2,
      "name": "pDisc1_lambert1_0"
    }
  ],
  "scene": 0,
  "scenes": [
    {
      "name": "Sketchfab_Scene",
      "nodes": [
        0
      ]
    }
  ]
}
